<?xml version="1.0" encoding="utf-8"?><!-- Uploaded to: SVG Repo, www.svgrepo.com, Generator: SVG Repo Mixer Tools -->
<svg width="48" height="48" viewBox="0 0 48 48" fill="none" xmlns="http://www.w3.org/2000/svg">
<g clip-path="url(#clip0_6_920)">
<path d="M47.29 23.7333C47.29 10.6745 36.7038 0.0883179 23.645 0.0883179C10.5862 0.0883179 0 10.6745 0 23.7333C0 36.7921 10.5862 47.3783 23.645 47.3783C36.7038 47.3783 47.29 36.7921 47.29 23.7333Z" fill="#79BCE8"/>
<path d="M33.5958 33.5604C33.5958 33.8325 33.3752 34.053 33.1031 34.053H26.6008V12.4276H33.1031C33.3752 12.4276 33.5958 12.6482 33.5958 12.9202V33.5604Z" fill="#04619F" stroke="#04619F" stroke-width="0.985209"/>
<path d="M26.453 10.3883C26.453 9.80542 25.9498 9.34997 25.3698 9.40797L14.0399 10.541C13.5362 10.5913 13.1527 11.0151 13.1527 11.5213V34.6638C13.1527 35.17 13.5362 35.5938 14.0399 35.6442L25.3698 36.7772C25.9498 36.8351 26.453 36.3797 26.453 35.7968V10.3883Z" fill="white" stroke="#04619F" stroke-width="0.985209"/>
<path d="M23.1155 25.9008C23.6664 25.9008 24.113 25.3053 24.113 24.5708C24.113 23.8362 23.6664 23.2407 23.1155 23.2407C22.5646 23.2407 22.118 23.8362 22.118 24.5708C22.118 25.3053 22.5646 25.9008 23.1155 25.9008Z" fill="#04619F"/>
</g>
<defs>
<clipPath id="clip0_6_920">
<rect width="47.29" height="47.29" fill="white" transform="translate(0 0.0883179)"/>
</clipPath>
</defs>
</svg>
