<?xml version="1.0" encoding="utf-8"?><!-- Uploaded to: SVG Repo, www.svgrepo.com, Generator: SVG Repo Mixer Tools -->
<svg width="22" height="23" viewBox="0 0 22 23" fill="none" xmlns="http://www.w3.org/2000/svg">
<path d="M11 8.32687C10.2707 8.32687 9.5712 8.6166 9.05548 9.13233C8.53975 9.64806 8.25002 10.3475 8.25002 11.0769C8.25002 11.8062 8.53975 12.5057 9.05548 13.0214C9.5712 13.5371 10.2707 13.8269 11 13.8269C11.7294 13.8269 12.4288 13.5371 12.9446 13.0214C13.4603 12.5057 13.75 11.8062 13.75 11.0769C13.75 10.3475 13.4603 9.64806 12.9446 9.13233C12.4288 8.6166 11.7294 8.32687 11 8.32687ZM11 15.6602C9.78444 15.6602 8.61866 15.1773 7.75911 14.3178C6.89957 13.4582 6.41669 12.2924 6.41669 11.0769C6.41669 9.8613 6.89957 8.69551 7.75911 7.83597C8.61866 6.97643 9.78444 6.49354 11 6.49354C12.2156 6.49354 13.3814 6.97643 14.2409 7.83597C15.1005 8.69551 15.5834 9.8613 15.5834 11.0769C15.5834 12.2924 15.1005 13.4582 14.2409 14.3178C13.3814 15.1773 12.2156 15.6602 11 15.6602ZM11 4.20187C6.41669 4.20187 2.50252 7.05271 0.916687 11.0769C2.50252 15.101 6.41669 17.9519 11 17.9519C15.5834 17.9519 19.4975 15.101 21.0834 11.0769C19.4975 7.05271 15.5834 4.20187 11 4.20187Z" fill="#757575"/>
</svg>
