<?xml version="1.0" encoding="utf-8"?><!-- Uploaded to: SVG Repo, www.svgrepo.com, Generator: SVG Repo Mixer Tools -->
<svg width="102" height="47" viewBox="0 0 102 47" fill="none" xmlns="http://www.w3.org/2000/svg">
<path d="M48.2476 1.4721C47.1143 2.28162 43.1206 5.62765 39.3968 8.86575C33.1905 14.3165 21.4794 24.4626 7.01587 36.8753C0.431746 42.488 0.0539683 42.9197 0 44.5927C0 46.0499 1.24127 46.6435 2.86032 45.888C3.50794 45.6181 10.4698 39.088 18.3492 31.3705C40.3683 9.83717 47.6 3.14511 48.6794 3.14511C49.4349 3.14511 49.6508 3.57686 49.6508 5.08797C49.6508 7.46257 48.7873 13.561 47.654 18.688C46.1968 25.7038 47.1143 25.8118 56.6127 19.5515C60.4984 16.961 63.8444 15.0181 64.0063 15.18C64.1683 15.3419 63.8984 16.7451 63.4667 18.3102C62.3873 21.8181 62.3873 23.1134 63.3587 23.1134C63.7905 23.1134 66.5968 21.2784 69.619 19.0118C72.6413 16.7991 75.2317 15.0181 75.3397 15.18C75.4476 15.288 75.2857 16.1515 74.9619 17.0689C74.6381 17.9864 74.4762 19.4975 74.5841 20.5229C74.8 22.8435 76.1492 22.6816 78.7936 20.0911C81.546 17.4467 81.9238 17.7165 80.5746 21.3324C80.1429 22.4657 82.3016 22.1419 83.381 20.9546C84.5143 19.7134 86.0794 19.4975 85.6476 20.6308C85.4857 21.0626 85.6476 21.7102 86.0794 22.034C86.619 22.4657 87.1587 22.3038 88.2921 21.2784C89.1555 20.5229 89.5873 19.8753 89.2095 19.8753C88.8857 19.8753 88.4 20.0911 88.2381 20.415C87.4825 21.6562 86.7809 20.9007 87.0508 19.0657C87.4286 16.5832 86.3492 16.5292 84.1905 18.9038C83.327 19.8213 82.4635 20.5229 82.3556 20.361C82.1936 20.1991 82.4635 18.7959 82.8952 17.2308C83.381 15.6657 83.5968 14.2626 83.4349 14.0467C83.219 13.8848 81.654 15.18 79.873 16.907C78.0921 18.634 76.527 19.9292 76.3651 19.7673C76.1492 19.6054 76.527 17.7705 77.1206 15.6657C77.7682 13.615 78.254 11.6721 78.254 11.2943C78.254 9.99908 76.527 10.8086 72.5873 14.0467C65.7873 19.6594 65.8413 19.6594 67.4603 13.3991C68.1079 10.9705 68.4857 8.81178 68.3238 8.70384C68.1619 8.54193 65.7333 10.215 62.873 12.3737C54.8857 18.5261 51.8095 20.6308 51.4317 20.253C51.2698 20.0372 51.4317 15.7737 51.8095 10.7007C52.3492 3.30701 52.3492 1.41813 51.8095 0.716541C50.8921 -0.362823 50.6762 -0.308857 48.2476 1.4721ZM66.327 12.4277C66.273 12.8054 66.1111 13.6689 65.9492 14.3165C65.6254 15.3419 65.4635 15.3959 64.546 14.6943C63.5206 13.9927 63.5206 13.9388 64.4921 12.8594C65.6254 11.6181 66.381 11.4562 66.327 12.4277ZM50.1905 18.688C50.1905 19.2276 50.3524 19.8753 50.6222 20.0911C51.5397 21.0626 50.7302 22.5737 49.273 22.5737C48.5175 22.5737 48.3556 20.9546 48.8952 18.9038C49.327 17.4467 50.1905 17.3388 50.1905 18.688ZM66.327 18.4181C66.9746 19.2276 66.1651 20.415 64.9238 20.415C64.1683 20.415 64.0603 19.8753 64.546 18.58C64.9238 17.5546 65.5175 17.5007 66.327 18.4181ZM14.4635 32.8276C14.1397 33.907 3.02222 44.7007 2.26667 44.7007C0.539683 44.7007 2.26667 42.5419 8.09524 37.6308C11.4952 34.7165 14.4095 32.3419 14.4635 32.288C14.5714 32.288 14.5714 32.5578 14.4635 32.8276Z" fill="#78BCE9"/>
<path d="M90.7746 20.7927C90.8825 21.3324 91.3143 21.7642 91.746 21.7642C92.1778 21.7642 92.6095 21.3324 92.7175 20.7927C92.8254 20.1451 92.5556 19.8753 91.746 19.8753C90.9365 19.8753 90.6667 20.1451 90.7746 20.7927Z" fill="#00427A"/>
<path d="M97.5746 24.0308C97.0349 24.1388 96.6032 24.7324 96.6032 25.2721C96.6032 25.9737 96.3333 26.1896 95.7937 26.0277C95.254 25.8118 94.9841 26.0277 94.9841 26.8372C94.9841 27.5388 95.3079 27.9705 95.9556 27.9705C96.7111 27.9705 96.873 28.3483 96.7111 30.3451C96.4413 33.7991 97.2508 34.9864 99.8413 34.9864C101.622 34.9864 102 34.8245 102 33.907C102 33.2054 101.622 32.8277 100.921 32.8277C100.111 32.8277 99.8413 32.4499 99.8413 31.2626C99.8413 30.3991 99.6794 29.3197 99.5175 28.834C99.2476 28.1864 99.5175 27.9705 100.597 27.9705C101.676 27.9705 102 27.7007 102 26.8372C102 26.0277 101.73 25.7578 100.813 25.9197C99.7873 26.0277 99.6254 25.8658 99.7333 24.8404C99.8952 23.6531 99.5175 23.4912 97.5746 24.0308Z" fill="#00427A"/>
<path d="M31.9492 26.6753C29.6286 28.2943 30.9238 30.561 34.7016 31.4245C36.5365 31.8562 36.6444 33.3673 34.8635 33.3673C34.1619 33.3673 33.4603 33.0975 33.3524 32.7737C33.2444 32.4499 32.4349 32.288 31.5714 32.3959L29.9524 32.5578L31.1936 33.7451C33.7301 36.3356 39.2349 34.8245 38.7492 31.6403C38.6413 30.6689 37.9936 30.2372 36.0508 29.6435C34.5936 29.2118 33.4603 28.5641 33.4603 28.1324C33.4603 27.2689 35.1873 27.2149 35.9968 28.0245C36.3206 28.3483 37.1301 28.5102 37.8317 28.4022L39.127 28.2403L37.9397 26.9991C36.4825 25.5959 33.7301 25.434 31.9492 26.6753Z" fill="#00427A"/>
<path d="M41.1238 29.6435C41.2857 32.6118 41.5556 33.6372 42.3651 34.2308C43.6064 35.1483 45.981 35.2023 46.8445 34.3388C47.3302 33.8531 47.4921 33.8531 47.4921 34.3388C47.4921 34.7165 48.0857 34.9864 48.8413 34.9864C50.1905 34.9864 50.1905 34.9324 50.1905 30.3991C50.1905 25.8658 50.1905 25.8118 48.8413 25.8118C47.5461 25.8118 47.4921 25.9737 47.4921 28.9959C47.4921 32.288 46.6286 33.7991 45.0635 33.1515C44.4699 32.9356 44.254 31.9642 44.254 29.3197V25.8118H42.581H40.908L41.1238 29.6435Z" fill="#00427A"/>
<path d="M53.4286 30.3991V34.9864H54.9936H56.6127L56.2889 32.1261C56.073 29.8594 56.1809 29.0499 56.8825 28.3483C57.6381 27.6467 58.0698 27.5388 58.9333 28.0245C59.9047 28.5642 59.9587 28.9419 59.6349 31.8023L59.2571 34.9864H60.9301H62.6032V31.7483C62.6032 29.2118 62.819 28.4562 63.5746 28.0245C65.1397 27.161 65.8413 28.3483 65.8413 31.8562C65.8413 34.8245 65.8952 34.9864 67.1905 34.9864C68.4857 34.9864 68.5397 34.8785 68.5397 31.3165C68.5397 28.4023 68.3238 27.4308 67.5682 26.7292C66.327 25.5959 64.0603 25.5419 63.1968 26.5673C62.6571 27.215 62.3333 27.215 60.9841 26.4594C59.6889 25.7038 59.1492 25.6499 57.8 26.1896C56.8825 26.5134 56.127 26.5673 56.127 26.2975C56.127 26.0277 55.5333 25.8118 54.7778 25.8118C53.4286 25.8118 53.4286 25.8658 53.4286 30.3991Z" fill="#00427A"/>
<path d="M71.7778 30.3991V34.9864H73.4508H75.0698L74.9619 31.6943C74.8 28.1324 75.5016 27.0531 77.2825 28.0245C78.0381 28.4562 78.254 29.2118 78.254 31.7483C78.254 34.8245 78.3079 34.9864 79.6032 34.9864C80.8984 34.9864 80.9524 34.8245 80.9524 31.7483C80.9524 29.2658 81.1682 28.4562 81.9238 28.0785C83.7048 27.161 84.1905 27.9165 84.1905 31.5324C84.1905 34.8785 84.2444 34.9864 85.5397 34.9864C86.8349 34.9864 86.8889 34.8785 86.8889 31.3165C86.8889 28.4023 86.673 27.4308 85.9175 26.7292C84.6762 25.5959 82.6794 25.5419 81.4921 26.6213C80.6825 27.3769 80.5206 27.3769 79.873 26.6213C79.1175 25.7038 77.0127 25.5419 75.5016 26.3515C74.8 26.7292 74.4762 26.7292 74.4762 26.3515C74.4762 26.0816 73.8825 25.8118 73.127 25.8118C71.7778 25.8118 71.7778 25.8658 71.7778 30.3991Z" fill="#00427A"/>
<path d="M90.127 30.3991V34.9864H91.746H93.3651V30.3991V25.8118H91.746H90.127V30.3991Z" fill="#00427A"/>
<path d="M30.2222 38.2245C30.2222 38.4943 30.7079 38.7641 31.3016 38.7641C32.2191 38.7641 32.381 39.1419 32.381 41.1927C32.381 42.9737 32.5968 43.6213 33.1905 43.6213C33.8381 43.6213 33.8921 43.1356 33.6222 41.1927C33.3524 38.98 33.4064 38.7641 34.4857 38.7641C35.0794 38.7641 35.6191 38.4943 35.6191 38.2245C35.6191 37.9006 34.4318 37.6848 32.9206 37.6848C31.4635 37.6848 30.2222 37.9006 30.2222 38.2245Z" fill="#00427A"/>
<path d="M36.6984 40.653V43.6213H38.9111C40.2064 43.6213 40.9619 43.4054 40.746 43.0816C40.5841 42.7578 39.8286 42.5419 39.073 42.5419C38.2635 42.5419 37.7778 42.2181 37.7778 41.7324C37.7778 41.2467 38.3175 40.9229 39.181 40.9229C39.9365 40.9229 40.4222 40.707 40.2603 40.4372C40.0984 40.1673 39.4508 40.0594 38.8572 40.2213C38.1016 40.4372 37.7778 40.2213 37.7778 39.6276C37.7778 39.0879 38.2635 38.7641 39.073 38.7641C39.8286 38.7641 40.5841 38.4943 40.746 38.2245C40.9619 37.9006 40.2064 37.6848 38.9111 37.6848H36.6984V40.653Z" fill="#00427A"/>
<path d="M42.8508 40.4371C41.5016 43.1356 41.5016 44.8086 42.8508 42.9197C43.7682 41.7324 45.6571 41.7324 46.3587 42.9197C46.6285 43.4594 47.0063 43.7292 47.2222 43.5133C47.6539 43.0816 45.3873 37.6848 44.7397 37.6848C44.4698 37.6848 43.6603 38.926 42.8508 40.4371Z" fill="#00427A"/>
<path d="M48.5714 40.653C48.5714 44.107 49.6508 44.7546 49.7048 41.3006L49.7587 39.034L50.5683 41.3006C51 42.5959 51.6476 43.6213 52.0254 43.6213C52.4032 43.6213 53.0508 42.5959 53.4826 41.3006L54.2381 39.034L54.4 41.3006C54.6699 44.6467 55.5873 44.161 55.5873 40.653C55.5873 38.1165 55.4254 37.6848 54.6159 37.6848C53.9143 37.6848 53.3746 38.3864 52.8889 39.9514L52.1873 42.2721L51.2159 39.9514C49.7587 36.6054 48.5714 36.9292 48.5714 40.653Z" fill="#00427A"/>
<path d="M59.9048 40.6531V43.6753L61.9555 43.5134L63.9524 43.3515V40.6531V37.9547L61.9555 37.7928L59.9048 37.6308V40.6531ZM63.0349 39.4118C62.6571 40.4372 60.9841 40.5991 60.9841 39.6277C60.9841 39.088 61.4698 38.7642 62.1175 38.7642C62.7651 38.7642 63.1428 39.034 63.0349 39.4118ZM63.1428 41.7324C63.1428 42.1642 62.6571 42.542 62.0635 42.542C61.4698 42.542 60.9841 42.1642 60.9841 41.7324C60.9841 41.3007 61.4698 40.9229 62.0635 40.9229C62.6571 40.9229 63.1428 41.3007 63.1428 41.7324Z" fill="#00427A"/>
<path d="M65.8413 40.0054C65.8413 41.3007 66.1111 42.5959 66.4889 42.9737C67.5143 43.9991 70.0508 43.7832 70.6984 42.5959C71.4 41.2467 71.4 37.6848 70.6984 37.6848C70.4286 37.6848 70.1587 38.6022 70.1587 39.7895C70.1587 42.0562 69.1873 43.2975 67.7841 42.7578C67.1905 42.5419 66.9206 41.7324 66.9206 40.0594C66.9206 38.7641 66.7048 37.6848 66.381 37.6848C66.1111 37.6848 65.8413 38.7102 65.8413 40.0054Z" fill="#00427A"/>
<path d="M72.8571 40.653C72.8571 42.2721 73.127 43.6213 73.3968 43.6213C73.7206 43.6213 73.9365 42.2721 73.9365 40.653C73.9365 39.034 73.7206 37.6848 73.3968 37.6848C73.127 37.6848 72.8571 39.034 72.8571 40.653Z" fill="#00427A"/>
<path d="M75.5555 40.653V43.6213H77.4444C78.4698 43.6213 79.3333 43.3514 79.3333 43.0816C79.3333 42.7578 78.7397 42.5419 77.9841 42.5419C76.7428 42.5419 76.6349 42.326 76.6349 40.1133C76.6349 38.7641 76.419 37.6848 76.0952 37.6848C75.8254 37.6848 75.5555 39.034 75.5555 40.653Z" fill="#00427A"/>
<path d="M80.4127 40.5991V43.6213H82.5714C84.4063 43.6213 84.8381 43.4054 85.3778 42.2181C86.4032 40.0594 85 38.0086 82.4095 37.7927L80.4127 37.6308V40.5991ZM84.4603 39.7895C84.946 41.3006 84.1905 42.5419 82.7873 42.5419C81.654 42.5419 81.4921 42.2721 81.4921 40.653C81.4921 39.034 81.654 38.7641 82.7873 38.7641C83.5968 38.7641 84.2444 39.1419 84.4603 39.7895Z" fill="#00427A"/>
<path d="M86.8889 40.653C86.8889 42.2721 87.1587 43.6213 87.4286 43.6213C87.7524 43.6213 87.9683 42.2721 87.9683 40.653C87.9683 39.034 87.7524 37.6848 87.4286 37.6848C87.1587 37.6848 86.8889 39.034 86.8889 40.653Z" fill="#00427A"/>
<path d="M89.5873 40.653C89.5873 42.2721 89.8572 43.6213 90.127 43.6213C90.4508 43.6213 90.6667 42.5959 90.6667 41.3006V39.034L92.1778 41.3006C94.2286 44.4848 94.9841 44.3229 94.9841 40.653C94.9841 39.034 94.7683 37.6848 94.4445 37.6848C94.1746 37.6848 93.9048 38.7102 93.9048 39.9514V42.2721L92.5016 39.9514C90.5587 36.7133 89.5873 36.9292 89.5873 40.653Z" fill="#00427A"/>
<path d="M97.1968 38.4403C96.0635 39.7895 96.7111 42.7038 98.2222 43.4594C100.381 44.4848 102 43.7832 102 41.9483C102 40.5991 101.784 40.3832 100.543 40.3832C99.1936 40.4372 99.1397 40.4911 100.003 41.1387C101.19 42.0562 101.19 43.0816 99.9492 43.0816C98.6 43.0816 97.6825 42.0562 97.6825 40.5451C97.6825 39.034 99.2476 38.1165 100.597 38.8721C101.73 39.5197 102.54 38.926 101.46 38.2245C100.273 37.4689 97.8984 37.5768 97.1968 38.4403Z" fill="#00427A"/>
</svg>
