   <?xml version="1.0" encoding="utf-8"?><!-- Uploaded to: SVG Repo, www.svgrepo.com, Generator: SVG Repo Mixer Tools -->
   <svg
      width="19"
      height="18"
      viewBox="0 0 19 18"
      fill="none"
      xmlns="http://www.w3.org/2000/svg"
    >
      <path
        d="M8.06589 0.264709V10.3385H10.5644V0.264709H8.06589ZM3.15607 2.81531C1.57992 4.39146 0.605469 6.56927 0.605469 8.97439C0.605469 13.7846 4.50492 17.6841 9.31515 17.6841C14.1254 17.6841 18.0248 13.7846 18.0248 8.97439C18.0248 6.56927 17.0504 4.39146 15.4742 2.81531L13.7199 4.56958C14.8473 5.69688 15.5444 7.25437 15.5444 8.97439C15.5444 12.4144 12.7552 15.2036 9.31515 15.2036C5.8751 15.2036 3.0859 12.4144 3.0859 8.97439C3.0859 7.25437 3.78304 5.69688 4.91034 4.56958L3.15607 2.81531Z"
        fill="white"
      />
    </svg>
